G04 EAGLE Gerber RS-274X export*
G75*
%MOMM*%
%FSLAX34Y34*%
%LPD*%
%INTop Copper*%
%IPPOS*%
%AMOC8*
5,1,8,0,0,1.08239X$1,22.5*%
G01*
%ADD10R,1.440000X1.440000*%
%ADD11C,1.440000*%
%ADD12R,1.500000X1.300000*%
%ADD13P,1.583577X8X22.500000*%
%ADD14R,1.800000X1.800000*%
%ADD15C,1.800000*%
%ADD16P,2.529329X8X292.500000*%
%ADD17C,2.336800*%
%ADD18C,0.635000*%
%ADD19C,0.254000*%
%ADD20C,0.858000*%


D10*
X279400Y215900D03*
D11*
X254000Y215900D03*
X228600Y215900D03*
X203200Y215900D03*
X177800Y215900D03*
X152400Y215900D03*
X127000Y215900D03*
X101600Y215900D03*
X76200Y215900D03*
X50800Y215900D03*
X25400Y215900D03*
X0Y215900D03*
X-25400Y215900D03*
X-50800Y215900D03*
X-76200Y215900D03*
X-76200Y63500D03*
X-50800Y63500D03*
X-25400Y63500D03*
X0Y63500D03*
X25400Y63500D03*
X50800Y63500D03*
X76200Y63500D03*
X101600Y63500D03*
X127000Y63500D03*
X152400Y63500D03*
X177800Y63500D03*
X203200Y63500D03*
X228600Y63500D03*
X254000Y63500D03*
X279400Y63500D03*
D12*
X203200Y352400D03*
X203200Y333400D03*
X-76200Y174600D03*
X-76200Y155600D03*
D13*
X114300Y495300D03*
X139700Y495300D03*
D14*
X203200Y266700D03*
D15*
X279400Y292100D03*
X254000Y292100D03*
X228600Y292100D03*
X203200Y292100D03*
X228600Y266700D03*
X254000Y266700D03*
X279400Y266700D03*
D12*
X50800Y92100D03*
X50800Y111100D03*
D16*
X88900Y317500D03*
X88900Y419100D03*
X63500Y342900D03*
X63500Y393700D03*
X88900Y368300D03*
X63500Y292100D03*
X63500Y444500D03*
D17*
X-88900Y342900D03*
X-88900Y393700D03*
D18*
X-76200Y215900D02*
X-76200Y174600D01*
X-25400Y368300D02*
X88900Y368300D01*
X-76200Y317500D02*
X-76200Y215900D01*
X-76200Y317500D02*
X-25400Y368300D01*
X-88900Y393700D02*
X-88900Y342900D01*
X279400Y266700D02*
X304800Y266700D01*
X279400Y152400D02*
X279400Y63500D01*
X279400Y152400D02*
X330200Y203200D01*
X330200Y241300D01*
X304800Y266700D01*
X254000Y292100D02*
X254000Y304800D01*
X266700Y317500D01*
X342900Y317500D01*
X355600Y304800D01*
X355600Y51435D01*
X342900Y38735D01*
X266700Y38735D01*
X254000Y51435D01*
X254000Y63500D01*
X228600Y292100D02*
X228600Y393700D01*
X215900Y406400D01*
X190500Y406400D01*
D19*
X165100Y241300D02*
X177800Y228600D01*
X190500Y228600D01*
X190500Y190500D01*
D18*
X190500Y76200D01*
D19*
X190500Y50800D01*
D18*
X202565Y38735D01*
X215900Y38735D02*
X228600Y51435D01*
X228600Y63500D01*
X215900Y38735D02*
X202565Y38735D01*
X152400Y368300D02*
X190500Y406400D01*
X152400Y254000D02*
X165100Y241300D01*
X152400Y254000D02*
X152400Y368300D01*
X279400Y241300D02*
X279400Y215900D01*
X279400Y241300D02*
X254000Y266700D01*
X228600Y266700D02*
X266700Y228600D01*
D19*
X266700Y203200D01*
D18*
X266700Y127000D01*
X203200Y63500D01*
D20*
X203200Y381000D03*
D18*
X203200Y352400D01*
D20*
X-76200Y127000D03*
D18*
X-76200Y155600D01*
X203200Y292100D02*
X203200Y333400D01*
X228600Y241300D02*
X254000Y215900D01*
X228600Y241300D02*
X177800Y241300D01*
X165100Y254000D01*
X165100Y279400D01*
X177800Y292100D01*
X203200Y292100D01*
X50800Y190500D02*
X50800Y111100D01*
X50800Y190500D02*
X63500Y203200D01*
D19*
X63500Y228600D01*
D18*
X50800Y241300D01*
D20*
X38100Y241300D03*
D18*
X50800Y241300D01*
X50800Y92100D02*
X50800Y63500D01*
X127000Y63500D02*
X127000Y51435D01*
X114300Y38735D01*
X50800Y38735D01*
D19*
X50165Y38735D01*
X38100Y50800D01*
X38100Y76200D01*
X12700Y101600D01*
D18*
X12700Y203200D01*
D19*
X12700Y228600D01*
D18*
X12700Y241300D01*
X63500Y292100D01*
X127000Y241300D02*
X152400Y215900D01*
X127000Y381000D02*
X88900Y419100D01*
X127000Y381000D02*
X127000Y241300D01*
X76200Y190500D02*
X76200Y63500D01*
X76200Y190500D02*
X88900Y203200D01*
D19*
X88900Y228600D01*
D18*
X114300Y292100D02*
X88900Y317500D01*
X114300Y292100D02*
X114300Y254000D01*
X88900Y228600D01*
X-38100Y127000D02*
X25400Y63500D01*
X-38100Y127000D02*
X-38100Y203200D01*
D19*
X-38100Y241300D01*
D18*
X0Y330200D02*
X12700Y342900D01*
X63500Y342900D01*
X0Y330200D02*
X0Y279400D01*
X-38100Y241300D01*
M02*
