G04 EAGLE Gerber RS-274X export*
G75*
%MOMM*%
%FSLAX34Y34*%
%LPD*%
%INSoldermask Bottom*%
%IPPOS*%
%AMOC8*
5,1,8,0,0,1.08239X$1,22.5*%
G01*
%ADD10C,2.743200*%
%ADD11C,1.981200*%
%ADD12R,1.643200X1.643200*%
%ADD13C,1.643200*%
%ADD14P,1.803519X8X22.500000*%
%ADD15R,2.003200X2.003200*%
%ADD16C,2.003200*%
%ADD17P,2.749271X8X292.500000*%
%ADD18C,2.540000*%
%ADD19C,2.997200*%
%ADD20C,1.061200*%


D10*
X304800Y444500D03*
X152908Y155702D03*
X152400Y442214D03*
D11*
X304800Y215900D03*
D12*
X279400Y215900D03*
D13*
X254000Y215900D03*
X228600Y215900D03*
X203200Y215900D03*
X177800Y215900D03*
X152400Y215900D03*
X127000Y215900D03*
X101600Y215900D03*
X76200Y215900D03*
X50800Y215900D03*
X25400Y215900D03*
X0Y215900D03*
X-25400Y215900D03*
X-50800Y215900D03*
X-76200Y215900D03*
X-76200Y63500D03*
X-50800Y63500D03*
X-25400Y63500D03*
X0Y63500D03*
X25400Y63500D03*
X50800Y63500D03*
X76200Y63500D03*
X101600Y63500D03*
X127000Y63500D03*
X152400Y63500D03*
X177800Y63500D03*
X203200Y63500D03*
X228600Y63500D03*
X254000Y63500D03*
X279400Y63500D03*
D11*
X304800Y63500D03*
X-101600Y63500D03*
X-101600Y215900D03*
D14*
X114300Y495300D03*
X139700Y495300D03*
D15*
X203200Y266700D03*
D16*
X279400Y292100D03*
X254000Y292100D03*
X228600Y292100D03*
X203200Y292100D03*
X228600Y266700D03*
X254000Y266700D03*
X279400Y266700D03*
D17*
X88900Y317500D03*
X88900Y419100D03*
X63500Y342900D03*
X63500Y393700D03*
X88900Y368300D03*
X63500Y292100D03*
X63500Y444500D03*
D18*
X-88900Y342900D03*
X-88900Y393700D03*
D19*
X-38100Y292100D03*
X-38100Y444500D03*
D20*
X203200Y381000D03*
X-76200Y127000D03*
X38100Y241300D03*
M02*
